<?xml version="1.0" encoding="UTF-8"?>
<svg id="teal." xmlns="http://www.w3.org/2000/svg" version="1.1" viewBox="0 0 566.93 566.93">
  <!-- Generator: Adobe Illustrator 30.0.0, SVG Export Plug-In . SVG Version: 2.1.1 Build 123)  -->
  <defs>
    <style>
      .st0 {
        fill: #231815;
      }
    </style>
  </defs>
  <path class="st0" d="M43.05,209.53v54.24h30.06v19.35h-30.06v141.99h-21.77v-141.99H3.66v-19.35h17.62v-54.24h21.77Z"/>
  <path class="st0" d="M164.65,428.56c-48.71,0-80.15-34.2-80.15-83.61s33.17-84.64,79.8-84.64,76.7,34.2,76.7,87.75H106.61c1.03,38,25.56,61.15,58.38,61.15,23.84,0,40.42-12.09,54.59-34.89l16.93,10.71c-14.51,27.29-41.8,43.53-71.86,43.53ZM217.84,329.76c-4.14-31.78-24.87-50.44-54.58-50.44s-50.78,19.35-55.62,50.44h110.2Z"/>
  <path class="st0" d="M261.35,344.96c0-50.44,34.2-84.64,79.46-84.64,26.26,0,49.75,12.44,60.8,32.13h.69v-28.67h21.77v161.33h-21.77v-29.02h-.69c-11.4,19.69-35.58,32.47-62.18,32.47-46.64,0-78.08-35.58-78.08-83.61ZM404.73,343.58c0-39.38-26.95-63.57-61.15-63.57s-60.11,25.22-60.11,63.91,24.53,64.95,59.07,64.95c36.62,0,62.19-27.98,62.19-65.29Z"/>
  <path class="st0" d="M491.07,138.37v286.74h-21.76V138.37h21.76Z"/>
  <path class="st0" d="M530.1,411.98c0-10.36,6.91-16.58,16.59-16.58s16.58,6.22,16.58,16.58c0,9.67-6.56,16.58-16.58,16.58s-16.59-6.91-16.59-16.58Z"/>
</svg>