<svg width="567" height="567" viewBox="0 0 567 567" fill="none" xmlns="http://www.w3.org/2000/svg">
<path d="M43.0502 209.53V263.77H73.1102V283.12H43.0502V425.11H21.2802V283.12H3.66016V263.77H21.2802V209.53H43.0502Z" fill="#0C7C7C"/>
<path d="M164.65 428.56C115.94 428.56 84.5 394.36 84.5 344.95C84.5 295.54 117.67 260.31 164.3 260.31C210.93 260.31 241 294.51 241 348.06H106.61C107.64 386.06 132.17 409.21 164.99 409.21C188.83 409.21 205.41 397.12 219.58 374.32L236.51 385.03C222 412.32 194.71 428.56 164.65 428.56ZM217.84 329.76C213.7 297.98 192.97 279.32 163.26 279.32C133.55 279.32 112.48 298.67 107.64 329.76H217.84Z" fill="#0C7C7C"/>
<path d="M261.352 344.96C261.352 294.52 295.552 260.32 340.812 260.32C367.072 260.32 390.562 272.76 401.612 292.45H402.302V263.78H424.072V425.11H402.302V396.09H401.612C390.212 415.78 366.032 428.56 339.432 428.56C292.792 428.56 261.352 392.98 261.352 344.95V344.96ZM404.732 343.58C404.732 304.2 377.782 280.01 343.582 280.01C309.382 280.01 283.472 305.23 283.472 343.92C283.472 382.61 308.002 408.87 342.542 408.87C379.162 408.87 404.732 380.89 404.732 343.58Z" fill="#0C7C7C"/>
<path d="M491.069 138.37V425.11H469.309V138.37H491.069Z" fill="#0C7C7C"/>
<path d="M530.102 411.98C530.102 401.62 537.012 395.4 546.692 395.4C556.372 395.4 563.272 401.62 563.272 411.98C563.272 421.65 556.712 428.56 546.692 428.56C536.672 428.56 530.102 421.65 530.102 411.98Z" fill="#0C7C7C"/>
</svg>
